<?xml version="1.0" encoding="UTF-8"?>
<svg id="Layer_1" xmlns="http://www.w3.org/2000/svg" version="1.1" viewBox="0 0 33.4 38.6">
  <!-- Generator: Adobe Illustrator 30.1.0, SVG Export Plug-In . SVG Version: 2.1.1 Build 136)  -->
  <defs>
    <style>
      .st0 {
        fill: #fff;
      }
    </style>
  </defs>
  <path class="st0" d="M8.8,37.1l-8-3.5c-.3.2-.5.6-.7,1.2h-.1s.8-2.8.8-2.8l6.9-1-.8-.6c-1.3-1-3.3-2.1-5-2.5l1-3.5h.1c-.2,1.2,0,1.4.5,1.5l8.8,1.1.2-1.1h0s.3,0,.3,0h0s-1,3.8-1,3.8h-.1c.1-1.1,0-1.3-.5-1.4l-8.5-1,6.4,4.5-.2.6-7.6,1.1c-.1,0-.2,0-.4.1.6.2,1.1.4,1.5.6,2.1.7,4.9,1.6,7.2,2l.3-1.2h0s.3,0,.3,0h0s-1,3.7-1,3.7h-.1c.1-1.1,0-1.3-.5-1.5Z"/>
  <path class="st0" d="M13.2,24.7l-7.3-5-.6,1h0s-.3-.2-.3-.2h0s3.2-4.8,3.2-4.8c.5-.7.5-.9.1-1.4h0c0,0,2.4,2,2.4,2l-.2.3h0s-.9-.9-.9-.9c-1,.3-2.2,1.2-2.9,2.3v.2c-.1,0,3.5,2.5,3.5,2.5l.8-1.2c.6-.9.7-1.2,0-2h0c0,0,2.4,2,2.4,2l-.2.3h0s-.8-.8-.8-.8c-.8.3-1.6,1-2.1,1.7h0c0,0,4.3,3,4.3,3l.5-.7c1.2-1.8,1.3-3.2-.6-5.1h0c0,0,3.2,2.7,3.2,2.7l-.2.3h0s-.4-.4-.4-.4c-.4.4-.7.8-1,1.3l-2.9,4.2h0c.5-1,.5-1.2,0-1.5Z"/>
  <path class="st0" d="M18,18.1l-5.2-6.5c-.5,0-.9,0-1.5.2h0c0,0,2.1-1.8,2.1-1.8h0c.7.3,1.4.5,2.3.7l8.4,2-.5-.6c-1.5-1.9-3.8-4-5.6-5.3l-.9.8h0s-.2-.3-.2-.3h0s2.9-2.3,2.9-2.3h0c-.7.9-.8,1.1-.5,1.4l5.8,7.3h0s-.7.6-.7.6l-11.2-2.7h-.1s.3.4.3.4c1.6,2,3.8,4.1,5.9,5.7l.9-.8h0s.2.3.2.3h0s-2.9,2.3-2.9,2.3h0c.7-.9.8-1.1.5-1.4Z"/>
  <path class="st0" d="M25.9,9.1l-2-5.8-1.1.5h0s-.1-.3-.1-.3h0s3.7-1.3,3.7-1.3h0c-.9.6-1.1.8-.9,1.2l1.7,4.8c.8,2.2,2.2,3.1,4.3,2.4,2.1-.7,2.1-2.3,1.5-3.9-.5-1.5-1.8-3.7-3-5.4l-1.1.4h0s-.1-.3-.1-.3h0s3.5-1.3,3.5-1.3h0c-.9.6-1.1.8-.9,1.2l1.8,5c.9,2.5.2,4.3-2.2,5.1-2.3.8-4.1,0-4.9-2.3Z"/>
</svg>